<svg xmlns="http://www.w3.org/2000/svg" viewBox="0 0 64 64">
  <defs>
    <linearGradient id="grad" x1="0%" y1="0%" x2="100%" y2="100%">
      <stop offset="0%" style="stop-color:#667eea"/>
      <stop offset="100%" style="stop-color:#764ba2"/>
    </linearGradient>
  </defs>
  <circle cx="32" cy="32" r="30" fill="url(#grad)"/>
  <path d="M20 38c-4.4 0-8-3.6-8-8s3.6-8 8-8c0.7 0 1.4 0.1 2 0.3C23.4 18.5 27.3 16 32 16c6.6 0 12 5.4 12 12 0 0.3 0 0.7-0.1 1h0.1c3.3 0 6 2.7 6 6s-2.7 6-6 6H20z" fill="white"/>
  <rect x="26" y="36" width="12" height="16" rx="2" fill="white" opacity="0.9"/>
  <rect x="28" y="40" width="8" height="2" rx="1" fill="#667eea"/>
  <rect x="28" y="44" width="8" height="2" rx="1" fill="#667eea"/>
  <rect x="28" y="48" width="5" height="2" rx="1" fill="#667eea"/>
</svg>
